# xmcd
#
# Track frame offsets: 
#        150
#        14090
#        31098
#        43473
#        58903
#        84672
#        103699
#        116364
#        131824
#        144570
#        156612
#        174794
#        194182
#        215538
#        236568
#        258020
#        307411
#
# Disc length: 4384 seconds
#
# Revision: 3
# Processed by: cddbd v1.5.2PL0 Copyright (c) Steve Scherf et al.
# Submitted via: ExactAudioCopy v1.0b1
#
DISCID=05111e11
DTITLE=Blues Caravan - Guitars and Feathers
DYEAR=2008
DGENRE=Blues
TTITLE0=Deborah Coleman, Candye Kane, Dani Wilde - Won't Leave
TTITLE1=Dani Wilde - Bring Your Loving Home
TTITLE2=Dani Wilde - Heal My Blues
TTITLE3=Dani Wilde - Come Undone
TTITLE4=Dani Wilde - I Love You More Than I Hate Myself
TTITLE5=Candye Kane - You Need A Great Big Woman
TTITLE6=Candye Kane - My Country Man
TTITLE7=Candye Kane - I'm Lucky
TTITLE8=Candye Kane - Crazy Little Thing
TTITLE9=Candye Kane - Toughest Girl Alive
TTITLE10=Deborah Coleman - Bad Boy
TTITLE11=Deborah Coleman - I Got To Know
TTITLE12=Deborah Coleman - Fight
TTITLE13=Deborah Coleman - Jesus Just Left Chicago
TTITLE14=Deborah Coleman, Candye Kane, Dani Wilde - Something's Got A 
TTITLE14=Hold Of Me
TTITLE15=Deborah Coleman, Candye Kane, Dani Wilde - Whole Lotta Love
TTITLE16=Deborah Coleman, Candye Kane, Dani Wilde - Rocking On The Blu
TTITLE16=es Caravan
EXTD=Recorded live at tge Harmonie in Bonn - Germany, 27th January 200
EXTD=8. Deborah Coleman, Candye Kane, Dani Wilde
EXTT0=
EXTT1=
EXTT2=
EXTT3=
EXTT4=
EXTT5=
EXTT6=
EXTT7=
EXTT8=
EXTT9=
EXTT10=
EXTT11=
EXTT12=
EXTT13=
EXTT14=
EXTT15=
EXTT16=
PLAYORDER=
